<svg width="16" height="17" viewBox="0 0 16 17" fill="none" xmlns="http://www.w3.org/2000/svg">
<path d="M7.20002 13.8765H8.79997V10.142L10.7733 11.7L11.8974 10.7996L8 7.72267L4.10257 10.7996L5.24306 11.687L7.20002 10.142V13.8765ZM1.92822 16.5C1.38941 16.5 0.933336 16.3526 0.560002 16.0579C0.186667 15.7632 0 15.4031 0 14.9777V2.02228C0 1.5969 0.186667 1.23684 0.560002 0.942106C0.933336 0.647369 1.38941 0.5 1.92822 0.5H10.4L16 4.92102V14.9777C16 15.4031 15.8133 15.7632 15.44 16.0579C15.0667 16.3526 14.6106 16.5 14.0718 16.5H1.92822ZM9.60003 5.5526V1.76314H1.92822C1.84616 1.76314 1.77093 1.79013 1.70254 1.84411C1.63416 1.8981 1.59998 1.95749 1.59998 2.02228V14.9777C1.59998 15.0425 1.63416 15.1019 1.70254 15.1559C1.77093 15.2099 1.84616 15.2369 1.92822 15.2369H14.0718C14.1538 15.2369 14.2291 15.2099 14.2975 15.1559C14.3658 15.1019 14.4 15.0425 14.4 14.9777V5.5526H9.60003Z" fill="white"/>
</svg>
